
<svg width="60" height="60" viewBox="0 0 60 60" xmlns="http://www.w3.org/2000/svg">
  <path d="M54.627 0l.83.828-1.415 1.415L51.8 0h2.827zM5.373 0l-.83.828L5.96 2.243 8.2 0H5.374zM48.97 0l3.657 3.657-1.414 1.414L46.143 0h2.828zM11.03 0L7.372 3.657l1.415 1.414L13.857 0H11.03zm32.284 0L39.9 3.414 42.272 0h-2.83zM16.686 0L10.9 5.787 14.243 0h-2.83zM22.343 0L13.9 8.443 19.8 0h-2.83zM32.657 0L41.1 8.443 35.2 0h2.83zM43.314 0L49.1 5.787 45.757 0h2.83zM27.9 0L36.47 8.572 25.557 0H27.9zm-5.8 0L36.47 14.4 16.686 0h5.414zm10.657 0L56.1 19.343 42.97 0h-2.83L0 43.314 14.157 57.47 45.757 26.1 36.47 16.814 16.686 36.6 26.1 45.9l-9.414-9.3 23.658-23.656L43.9 16.514 60 0H38.57z" fill="#1F6357" fill-opacity="0.07" fill-rule="evenodd"/>
</svg>
